# xmcd CD database file
#
# Track frame offsets:
#	150
#	23233
#	41417
#	60960
#	82743
#	103451
#	121023
#	142875
#	164616
#	181768
#	204926
#	226996
#	246886
#	274380
#	294997
#	315639
#	339765
#
# Disc length: 4761 seconds
#
# Revision: 2
# Processed by: cddbd v1.5.1PL0 Copyright (c) Steve Scherf et al.
# Submitted via: CDex 1.51
#
DISCID=dd129711
DTITLE=Jean Carne - Collaborations
DYEAR=2003
DGENRE=Soul
TTITLE0=I'm Back For More (with Al Johnson)
TTITLE1=Let's Stay Together (with Bobby M)
TTITLE2=Keep In Touch (with Grover Washington jr.)
TTITLE3=Star Flower (with Lonnie Liston Smith)
TTITLE4=Love Is Beautiful (with Universe)
TTITLE5=You Mmight Be Surprised (with Roy Ayers)
TTITLE6=Holdin' On (with Dexter Wansel)
TTITLE7=Night Breeze (with Stanley Turrentine)
TTITLE8=Valentine Love (with Michael Henderson)
TTITLE9=Dindi (with Norman Connors)
TTITLE10=If You Don't Know Me By Now (with The Temptations)
TTITLE11=Dreams Of Tomorrow (with Dexter Wansel)
TTITLE12=Mother Of Future (with Norman Connors)
TTITLE13=TheLlook Of Love (with Grover Washington jr.)
TTITLE14=Good Thing Goin' On (with Billy Paul)
TTITLE15=Lean On Me (with Nathan Heathman)
TTITLE16=Trust Me
EXTD=YEAR: 2003
EXTT0=
EXTT1=
EXTT2=
EXTT3=
EXTT4=
EXTT5=
EXTT6=
EXTT7=
EXTT8=
EXTT9=
EXTT10=
EXTT11=
EXTT12=
EXTT13=
EXTT14=
EXTT15=
EXTT16=
PLAYORDER=
